<?xml version="1.0" standalone="no"?>
<!DOCTYPE svg PUBLIC "-//W3C//DTD SVG 20010904//EN"
 "http://www.w3.org/TR/2001/REC-SVG-20010904/DTD/svg10.dtd">
<svg version="1.0" xmlns="http://www.w3.org/2000/svg"
 width="260.000000pt" height="260.000000pt" viewBox="0 0 260.000000 260.000000"
 preserveAspectRatio="xMidYMid meet">
<metadata>
Created by potrace 1.11, written by Peter Selinger 2001-2013
</metadata>
<g transform="translate(0.000000,260.000000) scale(0.100000,-0.100000)"
fill="#000000" stroke="none">
<path d="M0 1300 l0 -1300 1300 0 1300 0 0 1300 0 1300 -1300 0 -1300 0 0
-1300z m1961 686 c175 -37 269 -139 269 -291 -1 -110 -47 -190 -143 -245 l-50
-28 56 -27 c72 -34 149 -117 172 -186 25 -75 17 -187 -19 -257 -49 -96 -125
-154 -249 -189 -62 -17 -313 -29 -421 -18 l-76 7 0 613 0 614 58 6 c31 4 62 8
67 10 29 10 278 3 336 -9z m-1051 -28 c24 -68 410 -1200 410 -1204 0 -2 -39
-4 -88 -4 l-87 0 -65 193 -65 192 -217 3 -216 2 -64 -192 -65 -193 -86 -3 -87
-3 186 548 c102 301 197 581 211 621 l25 72 98 0 98 0 12 -32z"/>
<path d="M1668 1864 c-5 -4 -8 -95 -8 -202 l0 -195 113 6 c141 6 181 19 233
71 95 94 77 232 -36 296 -40 22 -59 25 -170 28 -69 2 -128 0 -132 -4z"/>
<path d="M1660 1104 l0 -236 128 4 c142 4 199 22 260 81 60 58 77 180 36 258
-21 42 -89 94 -145 112 -35 12 -87 17 -165 17 l-114 0 0 -236z"/>
<path d="M776 1769 c-10 -41 -49 -166 -87 -278 -38 -113 -69 -208 -69 -213 0
-4 81 -8 179 -8 l180 0 -80 238 c-43 130 -84 259 -91 286 l-13 48 -19 -73z"/>
</g>
</svg>
